<?xml version="1.0" encoding="UTF-8" standalone="no"?>
<!DOCTYPE svg PUBLIC "-//W3C//DTD SVG 1.1//EN" "http://www.w3.org/Graphics/SVG/1.1/DTD/svg11.dtd">
<svg width="100%" height="100%" viewBox="0 0 1000 1200" version="1.1" xmlns="http://www.w3.org/2000/svg" xmlns:xlink="http://www.w3.org/1999/xlink" xml:space="preserve" xmlns:serif="http://www.serif.com/" style="fill-rule:evenodd;clip-rule:evenodd;stroke-linecap:round;stroke-linejoin:round;stroke-miterlimit:1.5;">
    <g transform="matrix(1,0,0,1,-500,-288)">
        <g transform="matrix(1.5625,0,0,4.26667,0,0)">
            <g transform="matrix(1.08503,0,0,0.217391,378.227,32.7514)">
                <path d="M535,182.7C535,171.275 529.925,162 523.675,162L244.325,162C238.075,162 233,171.275 233,182.7L233,279.3C233,290.725 238.075,300 244.325,300L523.675,300C529.925,300 535,290.725 535,279.3L535,182.7Z" style="fill:rgb(255,29,0);"/>
                <clipPath id="_clip1">
                    <path d="M535,182.7C535,171.275 529.925,162 523.675,162L244.325,162C238.075,162 233,171.275 233,182.7L233,279.3C233,290.725 238.075,300 244.325,300L523.675,300C529.925,300 535,290.725 535,279.3L535,182.7Z"/>
                </clipPath>
                <g clip-path="url(#_clip1)">
                    <g transform="matrix(0.547101,0,0,1,-1332.8,-827.875)">
                        <path d="M2862,1099.17L2862,1107.17C2862,1118.6 2871.28,1127.88 2882.7,1127.88L3393.3,1127.88C3404.72,1127.88 3414,1118.6 3414,1107.17L3414,1099.17C3414,1110.6 3404.72,1119.88 3393.3,1119.88L2882.7,1119.88C2871.28,1119.88 2862,1110.6 2862,1099.17Z" style="fill-opacity:0.5;"/>
                    </g>
                    <g transform="matrix(0.589844,0,0,1.07813,-566.828,26.1606)">
                        <path d="M1844.09,190L1380.08,190C1372.27,190 1365.93,196.337 1365.93,204.143L1365.93,232.43C1365.93,240.236 1372.27,246.574 1380.08,246.574L1868,246.574L1867.95,143L1867.88,143C1867.15,136.672 1863.35,131.274 1858,128.347L1858,166.711L1858,175.857C1858,183.585 1851.79,189.874 1844.09,189.998L1844.09,190Z" style="fill:url(#_Linear2);"/>
                    </g>
                </g>
                <path d="M535,182.7C535,171.275 529.925,162 523.675,162L244.325,162C238.075,162 233,171.275 233,182.7L233,279.3C233,290.725 238.075,300 244.325,300L523.675,300C529.925,300 535,290.725 535,279.3L535,182.7Z" style="fill:none;stroke:black;stroke-width:2.93px;"/>
            </g>
        </g>
        <g transform="matrix(1.5625,0,0,4.26667,0,0)">
            <g transform="matrix(0.542517,0,0,0.217391,308.794,32.7514)">
                <path d="M535,182.7C535,171.275 524.851,162 512.35,162L255.65,162C243.149,162 233,171.275 233,182.7L233,279.3C233,290.725 243.149,300 255.65,300L512.35,300C524.851,300 535,290.725 535,279.3L535,182.7Z" style="fill:rgb(255,29,0);"/>
                <clipPath id="_clip3">
                    <path d="M535,182.7C535,171.275 524.851,162 512.35,162L255.65,162C243.149,162 233,171.275 233,182.7L233,279.3C233,290.725 243.149,300 255.65,300L512.35,300C524.851,300 535,290.725 535,279.3L535,182.7Z"/>
                </clipPath>
                <g clip-path="url(#_clip3)">
                    <g transform="matrix(1.0942,0,0,1,-4020.82,-1018.38)">
                        <path d="M4163.6,1289.7C4163.6,1301.12 4154.32,1310.4 4142.9,1310.4L3908.3,1310.4C3896.87,1310.4 3887.6,1301.12 3887.6,1289.7L3887.6,1297.67C3887.6,1309.1 3896.87,1318.38 3908.3,1318.38L4142.9,1318.38C4154.32,1318.38 4163.6,1309.1 4163.6,1297.67L4163.6,1289.7Z" style="fill-opacity:0.5;"/>
                    </g>
                    <g transform="matrix(1.17969,0,0,1.07813,-1005.67,26.1563)">
                        <path d="M1282.19,190L1074.14,190C1066.34,190 1060,196.338 1060,204.144L1060,232.433C1060,240.24 1066.34,246.578 1074.14,246.578L1306,246.578L1306,190L1305.98,190L1305.95,143.004L1305.88,143.004C1305.15,136.676 1301.35,131.278 1296,128.351L1296,166.715L1296,175.861C1296,183.554 1289.84,189.821 1282.19,190Z" style="fill:url(#_Linear4);"/>
                    </g>
                </g>
                <path d="M535,182.7C535,171.275 524.851,162 512.35,162L255.65,162C243.149,162 233,171.275 233,182.7L233,279.3C233,290.725 243.149,300 255.65,300L512.35,300C524.851,300 535,290.725 535,279.3L535,182.7Z" style="fill:none;stroke:black;stroke-width:4.5px;"/>
            </g>
        </g>
        <g transform="matrix(1.5625,0,0,4.26667,0,0)">
            <g transform="matrix(0.271258,0,0,0.217391,258.077,32.7514)">
                <path d="M535,182.7C535,171.275 514.702,162 489.7,162L278.3,162C253.298,162 233,171.275 233,182.7L233,279.3C233,290.725 253.298,300 278.3,300L489.7,300C514.702,300 535,290.725 535,279.3L535,182.7Z" style="fill:rgb(255,29,0);"/>
                <clipPath id="_clip5">
                    <path d="M535,182.7C535,171.275 514.702,162 489.7,162L278.3,162C253.298,162 233,171.275 233,182.7L233,279.3C233,290.725 253.298,300 278.3,300L489.7,300C514.702,300 535,290.725 535,279.3L535,182.7Z"/>
                </clipPath>
                <g clip-path="url(#_clip5)">
                    <g transform="matrix(2.18841,0,0,1,-7527.09,-1018.38)">
                        <path d="M3546,1289.7L3546,1297.67C3546,1309.1 3555.28,1318.38 3566.7,1318.38L3663.3,1318.38C3674.72,1318.38 3684,1309.1 3684,1297.67L3684,1289.7C3684,1301.12 3674.72,1310.4 3663.3,1310.4L3566.7,1310.4C3555.28,1310.4 3546,1301.12 3546,1289.7Z" style="fill-opacity:0.5;"/>
                    </g>
                    <g transform="matrix(2.35938,0,0,1.07813,-1824.38,26.1563)">
                        <path d="M976.194,190L896.144,190C888.338,190 882,196.338 882,204.144L882,232.433C882,240.24 888.338,246.578 896.144,246.578L1000,246.578L999.994,232.845C999.998,232.708 1000,232.571 1000,232.433L1000,204.144C1000,203.899 999.994,203.654 999.981,203.411L999.955,143.004L999.875,143.004C999.152,136.676 995.347,131.278 990,128.351L990,166.715L990,175.861C990,183.554 983.844,189.821 976.194,190Z" style="fill:url(#_Linear6);"/>
                    </g>
                </g>
                <path d="M535,182.7C535,171.275 514.702,162 489.7,162L278.3,162C253.298,162 233,171.275 233,182.7L233,279.3C233,290.725 253.298,300 278.3,300L489.7,300C514.702,300 535,290.725 535,279.3L535,182.7Z" style="fill:none;stroke:black;stroke-width:5.55px;"/>
            </g>
        </g>
        <g transform="matrix(1.5625,0,0,4.26667,0,0)">
            <g transform="matrix(1.08503,0,0,0.217391,378.227,74.4701)">
                <path d="M535,182.7C535,171.275 529.925,162 523.675,162L244.325,162C238.075,162 233,171.275 233,182.7L233,279.3C233,290.725 238.075,300 244.325,300L523.675,300C529.925,300 535,290.725 535,279.3L535,182.7Z" style="fill:rgb(255,107,0);"/>
                <clipPath id="_clip7">
                    <path d="M535,182.7C535,171.275 529.925,162 523.675,162L244.325,162C238.075,162 233,171.275 233,182.7L233,279.3C233,290.725 238.075,300 244.325,300L523.675,300C529.925,300 535,290.725 535,279.3L535,182.7Z"/>
                </clipPath>
                <g clip-path="url(#_clip7)">
                    <g transform="matrix(0.547101,0,0,1,-1332.8,-827.875)">
                        <path d="M2862,1099.17L2862,1107.17C2862,1118.6 2871.28,1127.88 2882.7,1127.88L3393.3,1127.88C3404.72,1127.88 3414,1118.6 3414,1107.17L3414,1099.17C3414,1110.6 3404.72,1119.88 3393.3,1119.88L2882.7,1119.88C2871.28,1119.88 2862,1110.6 2862,1099.17Z" style="fill-opacity:0.5;"/>
                    </g>
                    <g transform="matrix(0.589844,0,0,1.07813,-566.828,26.1606)">
                        <path d="M1844.09,190L1380.08,190C1372.27,190 1365.93,196.337 1365.93,204.143L1365.93,232.43C1365.93,240.236 1372.27,246.574 1380.08,246.574L1868,246.574L1867.95,143L1867.88,143C1867.15,136.672 1863.35,131.274 1858,128.347L1858,166.711L1858,175.857C1858,183.585 1851.79,189.874 1844.09,189.998L1844.09,190Z" style="fill:url(#_Linear8);"/>
                    </g>
                </g>
                <path d="M535,182.7C535,171.275 529.925,162 523.675,162L244.325,162C238.075,162 233,171.275 233,182.7L233,279.3C233,290.725 238.075,300 244.325,300L523.675,300C529.925,300 535,290.725 535,279.3L535,182.7Z" style="fill:none;stroke:black;stroke-width:2.93px;"/>
            </g>
        </g>
        <g transform="matrix(1.5625,0,0,4.26667,0,0)">
            <g transform="matrix(0.542517,0,0,0.217391,308.794,74.4701)">
                <path d="M535,182.7C535,171.275 524.851,162 512.35,162L255.65,162C243.149,162 233,171.275 233,182.7L233,279.3C233,290.725 243.149,300 255.65,300L512.35,300C524.851,300 535,290.725 535,279.3L535,182.7Z" style="fill:rgb(255,107,0);"/>
                <clipPath id="_clip9">
                    <path d="M535,182.7C535,171.275 524.851,162 512.35,162L255.65,162C243.149,162 233,171.275 233,182.7L233,279.3C233,290.725 243.149,300 255.65,300L512.35,300C524.851,300 535,290.725 535,279.3L535,182.7Z"/>
                </clipPath>
                <g clip-path="url(#_clip9)">
                    <g transform="matrix(1.0942,0,0,1,-4020.82,-1018.38)">
                        <path d="M4163.6,1289.7C4163.6,1301.12 4154.32,1310.4 4142.9,1310.4L3908.3,1310.4C3896.87,1310.4 3887.6,1301.12 3887.6,1289.7L3887.6,1297.67C3887.6,1309.1 3896.87,1318.38 3908.3,1318.38L4142.9,1318.38C4154.32,1318.38 4163.6,1309.1 4163.6,1297.67L4163.6,1289.7Z" style="fill-opacity:0.5;"/>
                    </g>
                    <g transform="matrix(1.17969,0,0,1.07813,-1005.67,26.1563)">
                        <path d="M1282.19,190L1074.14,190C1066.34,190 1060,196.338 1060,204.144L1060,232.433C1060,240.24 1066.34,246.578 1074.14,246.578L1306,246.578L1306,190L1305.98,190L1305.95,143.004L1305.88,143.004C1305.15,136.676 1301.35,131.278 1296,128.351L1296,166.715L1296,175.861C1296,183.554 1289.84,189.821 1282.19,190Z" style="fill:url(#_Linear10);"/>
                    </g>
                </g>
                <path d="M535,182.7C535,171.275 524.851,162 512.35,162L255.65,162C243.149,162 233,171.275 233,182.7L233,279.3C233,290.725 243.149,300 255.65,300L512.35,300C524.851,300 535,290.725 535,279.3L535,182.7Z" style="fill:none;stroke:black;stroke-width:4.5px;"/>
            </g>
        </g>
        <g transform="matrix(1.5625,0,0,4.26667,0,0)">
            <g transform="matrix(0.271258,0,0,0.217391,258.077,74.4701)">
                <path d="M535,182.7C535,171.275 514.702,162 489.7,162L278.3,162C253.298,162 233,171.275 233,182.7L233,279.3C233,290.725 253.298,300 278.3,300L489.7,300C514.702,300 535,290.725 535,279.3L535,182.7Z" style="fill:rgb(255,107,0);"/>
                <clipPath id="_clip11">
                    <path d="M535,182.7C535,171.275 514.702,162 489.7,162L278.3,162C253.298,162 233,171.275 233,182.7L233,279.3C233,290.725 253.298,300 278.3,300L489.7,300C514.702,300 535,290.725 535,279.3L535,182.7Z"/>
                </clipPath>
                <g clip-path="url(#_clip11)">
                    <g transform="matrix(2.18841,0,0,1,-7527.09,-1018.38)">
                        <path d="M3546,1289.7L3546,1297.67C3546,1309.1 3555.28,1318.38 3566.7,1318.38L3663.3,1318.38C3674.72,1318.38 3684,1309.1 3684,1297.67L3684,1289.7C3684,1301.12 3674.72,1310.4 3663.3,1310.4L3566.7,1310.4C3555.28,1310.4 3546,1301.12 3546,1289.7Z" style="fill-opacity:0.5;"/>
                    </g>
                    <g transform="matrix(2.35938,0,0,1.07813,-1824.38,26.1563)">
                        <path d="M976.194,190L896.144,190C888.338,190 882,196.338 882,204.144L882,232.433C882,240.24 888.338,246.578 896.144,246.578L1000,246.578L999.994,232.845C999.998,232.708 1000,232.571 1000,232.433L1000,204.144C1000,203.899 999.994,203.654 999.981,203.411L999.955,143.004L999.875,143.004C999.152,136.676 995.347,131.278 990,128.351L990,166.715L990,175.861C990,183.554 983.844,189.821 976.194,190Z" style="fill:url(#_Linear12);"/>
                    </g>
                </g>
                <path d="M535,182.7C535,171.275 514.702,162 489.7,162L278.3,162C253.298,162 233,171.275 233,182.7L233,279.3C233,290.725 253.298,300 278.3,300L489.7,300C514.702,300 535,290.725 535,279.3L535,182.7Z" style="fill:none;stroke:black;stroke-width:5.55px;"/>
            </g>
        </g>
        <g transform="matrix(1.5625,0,0,4.26667,0,0)">
            <g transform="matrix(1.08503,0,0,0.217391,378.227,116.189)">
                <path d="M535,182.7C535,171.275 529.925,162 523.675,162L244.325,162C238.075,162 233,171.275 233,182.7L233,279.3C233,290.725 238.075,300 244.325,300L523.675,300C529.925,300 535,290.725 535,279.3L535,182.7Z" style="fill:rgb(241,187,17);"/>
                <clipPath id="_clip13">
                    <path d="M535,182.7C535,171.275 529.925,162 523.675,162L244.325,162C238.075,162 233,171.275 233,182.7L233,279.3C233,290.725 238.075,300 244.325,300L523.675,300C529.925,300 535,290.725 535,279.3L535,182.7Z"/>
                </clipPath>
                <g clip-path="url(#_clip13)">
                    <g transform="matrix(0.547101,0,0,1,-1332.8,-827.875)">
                        <path d="M2862,1099.17L2862,1107.17C2862,1118.6 2871.28,1127.88 2882.7,1127.88L3393.3,1127.88C3404.72,1127.88 3414,1118.6 3414,1107.17L3414,1099.17C3414,1110.6 3404.72,1119.88 3393.3,1119.88L2882.7,1119.88C2871.28,1119.88 2862,1110.6 2862,1099.17Z" style="fill-opacity:0.5;"/>
                    </g>
                    <g transform="matrix(0.589844,0,0,1.07813,-566.828,26.1606)">
                        <path d="M1844.09,190L1380.08,190C1372.27,190 1365.93,196.337 1365.93,204.143L1365.93,232.43C1365.93,240.236 1372.27,246.574 1380.08,246.574L1868,246.574L1867.95,143L1867.88,143C1867.15,136.672 1863.35,131.274 1858,128.347L1858,166.711L1858,175.857C1858,183.585 1851.79,189.874 1844.09,189.998L1844.09,190Z" style="fill:url(#_Linear14);"/>
                    </g>
                </g>
                <path d="M535,182.7C535,171.275 529.925,162 523.675,162L244.325,162C238.075,162 233,171.275 233,182.7L233,279.3C233,290.725 238.075,300 244.325,300L523.675,300C529.925,300 535,290.725 535,279.3L535,182.7Z" style="fill:none;stroke:black;stroke-width:2.93px;"/>
            </g>
        </g>
        <g transform="matrix(1.5625,0,0,4.26667,0,0)">
            <g transform="matrix(0.542517,0,0,0.217391,308.794,116.189)">
                <path d="M535,182.7C535,171.275 524.851,162 512.35,162L255.65,162C243.149,162 233,171.275 233,182.7L233,279.3C233,290.725 243.149,300 255.65,300L512.35,300C524.851,300 535,290.725 535,279.3L535,182.7Z" style="fill:rgb(241,187,17);"/>
                <clipPath id="_clip15">
                    <path d="M535,182.7C535,171.275 524.851,162 512.35,162L255.65,162C243.149,162 233,171.275 233,182.7L233,279.3C233,290.725 243.149,300 255.65,300L512.35,300C524.851,300 535,290.725 535,279.3L535,182.7Z"/>
                </clipPath>
                <g clip-path="url(#_clip15)">
                    <g transform="matrix(1.0942,0,0,1,-4020.82,-1018.38)">
                        <path d="M4163.6,1289.7C4163.6,1301.12 4154.32,1310.4 4142.9,1310.4L3908.3,1310.4C3896.87,1310.4 3887.6,1301.12 3887.6,1289.7L3887.6,1297.67C3887.6,1309.1 3896.87,1318.38 3908.3,1318.38L4142.9,1318.38C4154.32,1318.38 4163.6,1309.1 4163.6,1297.67L4163.6,1289.7Z" style="fill-opacity:0.5;"/>
                    </g>
                    <g transform="matrix(1.17969,0,0,1.07813,-1005.67,26.1563)">
                        <path d="M1282.19,190L1074.14,190C1066.34,190 1060,196.338 1060,204.144L1060,232.433C1060,240.24 1066.34,246.578 1074.14,246.578L1306,246.578L1306,190L1305.98,190L1305.95,143.004L1305.88,143.004C1305.15,136.676 1301.35,131.278 1296,128.351L1296,166.715L1296,175.861C1296,183.554 1289.84,189.821 1282.19,190Z" style="fill:url(#_Linear16);"/>
                    </g>
                </g>
                <path d="M535,182.7C535,171.275 524.851,162 512.35,162L255.65,162C243.149,162 233,171.275 233,182.7L233,279.3C233,290.725 243.149,300 255.65,300L512.35,300C524.851,300 535,290.725 535,279.3L535,182.7Z" style="fill:none;stroke:black;stroke-width:4.5px;"/>
            </g>
        </g>
        <g transform="matrix(1.5625,0,0,4.26667,0,0)">
            <g transform="matrix(0.271258,0,0,0.217391,258.077,116.189)">
                <path d="M535,182.7C535,171.275 514.702,162 489.7,162L278.3,162C253.298,162 233,171.275 233,182.7L233,279.3C233,290.725 253.298,300 278.3,300L489.7,300C514.702,300 535,290.725 535,279.3L535,182.7Z" style="fill:rgb(241,187,17);"/>
                <clipPath id="_clip17">
                    <path d="M535,182.7C535,171.275 514.702,162 489.7,162L278.3,162C253.298,162 233,171.275 233,182.7L233,279.3C233,290.725 253.298,300 278.3,300L489.7,300C514.702,300 535,290.725 535,279.3L535,182.7Z"/>
                </clipPath>
                <g clip-path="url(#_clip17)">
                    <g transform="matrix(2.18841,0,0,1,-7527.09,-1018.38)">
                        <path d="M3546,1289.7L3546,1297.67C3546,1309.1 3555.28,1318.38 3566.7,1318.38L3663.3,1318.38C3674.72,1318.38 3684,1309.1 3684,1297.67L3684,1289.7C3684,1301.12 3674.72,1310.4 3663.3,1310.4L3566.7,1310.4C3555.28,1310.4 3546,1301.12 3546,1289.7Z" style="fill-opacity:0.5;"/>
                    </g>
                    <g transform="matrix(2.35938,0,0,1.07813,-1824.38,26.1563)">
                        <path d="M976.194,190L896.144,190C888.338,190 882,196.338 882,204.144L882,232.433C882,240.24 888.338,246.578 896.144,246.578L1000,246.578L999.994,232.845C999.998,232.708 1000,232.571 1000,232.433L1000,204.144C1000,203.899 999.994,203.654 999.981,203.411L999.955,143.004L999.875,143.004C999.152,136.676 995.347,131.278 990,128.351L990,166.715L990,175.861C990,183.554 983.844,189.821 976.194,190Z" style="fill:url(#_Linear18);"/>
                    </g>
                </g>
                <path d="M535,182.7C535,171.275 514.702,162 489.7,162L278.3,162C253.298,162 233,171.275 233,182.7L233,279.3C233,290.725 253.298,300 278.3,300L489.7,300C514.702,300 535,290.725 535,279.3L535,182.7Z" style="fill:none;stroke:black;stroke-width:5.55px;"/>
            </g>
        </g>
        <g transform="matrix(1.5625,0,0,4.26667,0,0)">
            <g transform="matrix(1.08503,0,0,0.217391,378.227,157.908)">
                <path d="M535,182.7C535,171.275 529.925,162 523.675,162L244.325,162C238.075,162 233,171.275 233,182.7L233,279.3C233,290.725 238.075,300 244.325,300L523.675,300C529.925,300 535,290.725 535,279.3L535,182.7Z" style="fill:rgb(79,214,0);"/>
                <clipPath id="_clip19">
                    <path d="M535,182.7C535,171.275 529.925,162 523.675,162L244.325,162C238.075,162 233,171.275 233,182.7L233,279.3C233,290.725 238.075,300 244.325,300L523.675,300C529.925,300 535,290.725 535,279.3L535,182.7Z"/>
                </clipPath>
                <g clip-path="url(#_clip19)">
                    <g transform="matrix(0.547101,0,0,1,-1332.8,-827.875)">
                        <path d="M2862,1099.17L2862,1107.17C2862,1118.6 2871.28,1127.88 2882.7,1127.88L3393.3,1127.88C3404.72,1127.88 3414,1118.6 3414,1107.17L3414,1099.17C3414,1110.6 3404.72,1119.88 3393.3,1119.88L2882.7,1119.88C2871.28,1119.88 2862,1110.6 2862,1099.17Z" style="fill-opacity:0.5;"/>
                    </g>
                    <g transform="matrix(0.589844,0,0,1.07813,-566.828,26.1606)">
                        <path d="M1844.09,190L1380.08,190C1372.27,190 1365.93,196.337 1365.93,204.143L1365.93,232.43C1365.93,240.236 1372.27,246.574 1380.08,246.574L1868,246.574L1867.95,143L1867.88,143C1867.15,136.672 1863.35,131.274 1858,128.347L1858,166.711L1858,175.857C1858,183.585 1851.79,189.874 1844.09,189.998L1844.09,190Z" style="fill:url(#_Linear20);"/>
                    </g>
                </g>
                <path d="M535,182.7C535,171.275 529.925,162 523.675,162L244.325,162C238.075,162 233,171.275 233,182.7L233,279.3C233,290.725 238.075,300 244.325,300L523.675,300C529.925,300 535,290.725 535,279.3L535,182.7Z" style="fill:none;stroke:black;stroke-width:2.93px;"/>
            </g>
        </g>
        <g transform="matrix(1.5625,0,0,4.26667,0,0)">
            <g transform="matrix(0.542517,0,0,0.217391,308.794,157.908)">
                <path d="M535,182.7C535,171.275 524.851,162 512.35,162L255.65,162C243.149,162 233,171.275 233,182.7L233,279.3C233,290.725 243.149,300 255.65,300L512.35,300C524.851,300 535,290.725 535,279.3L535,182.7Z" style="fill:rgb(79,214,0);"/>
                <clipPath id="_clip21">
                    <path d="M535,182.7C535,171.275 524.851,162 512.35,162L255.65,162C243.149,162 233,171.275 233,182.7L233,279.3C233,290.725 243.149,300 255.65,300L512.35,300C524.851,300 535,290.725 535,279.3L535,182.7Z"/>
                </clipPath>
                <g clip-path="url(#_clip21)">
                    <g transform="matrix(1.0942,0,0,1,-4020.82,-1018.38)">
                        <path d="M4163.6,1289.7C4163.6,1301.12 4154.32,1310.4 4142.9,1310.4L3908.3,1310.4C3896.87,1310.4 3887.6,1301.12 3887.6,1289.7L3887.6,1297.67C3887.6,1309.1 3896.87,1318.38 3908.3,1318.38L4142.9,1318.38C4154.32,1318.38 4163.6,1309.1 4163.6,1297.67L4163.6,1289.7Z" style="fill-opacity:0.5;"/>
                    </g>
                    <g transform="matrix(1.17969,0,0,1.07813,-1005.67,26.1563)">
                        <path d="M1282.19,190L1074.14,190C1066.34,190 1060,196.338 1060,204.144L1060,232.433C1060,240.24 1066.34,246.578 1074.14,246.578L1306,246.578L1306,190L1305.98,190L1305.95,143.004L1305.88,143.004C1305.15,136.676 1301.35,131.278 1296,128.351L1296,166.715L1296,175.861C1296,183.554 1289.84,189.821 1282.19,190Z" style="fill:url(#_Linear22);"/>
                    </g>
                </g>
                <path d="M535,182.7C535,171.275 524.851,162 512.35,162L255.65,162C243.149,162 233,171.275 233,182.7L233,279.3C233,290.725 243.149,300 255.65,300L512.35,300C524.851,300 535,290.725 535,279.3L535,182.7Z" style="fill:none;stroke:black;stroke-width:4.5px;"/>
            </g>
        </g>
        <g transform="matrix(1.5625,0,0,4.26667,0,0)">
            <g transform="matrix(0.271258,0,0,0.217391,258.077,157.908)">
                <path d="M535,182.7C535,171.275 514.702,162 489.7,162L278.3,162C253.298,162 233,171.275 233,182.7L233,279.3C233,290.725 253.298,300 278.3,300L489.7,300C514.702,300 535,290.725 535,279.3L535,182.7Z" style="fill:rgb(79,214,0);"/>
                <clipPath id="_clip23">
                    <path d="M535,182.7C535,171.275 514.702,162 489.7,162L278.3,162C253.298,162 233,171.275 233,182.7L233,279.3C233,290.725 253.298,300 278.3,300L489.7,300C514.702,300 535,290.725 535,279.3L535,182.7Z"/>
                </clipPath>
                <g clip-path="url(#_clip23)">
                    <g transform="matrix(2.18841,0,0,1,-7527.09,-1018.38)">
                        <path d="M3546,1289.7L3546,1297.67C3546,1309.1 3555.28,1318.38 3566.7,1318.38L3663.3,1318.38C3674.72,1318.38 3684,1309.1 3684,1297.67L3684,1289.7C3684,1301.12 3674.72,1310.4 3663.3,1310.4L3566.7,1310.4C3555.28,1310.4 3546,1301.12 3546,1289.7Z" style="fill-opacity:0.5;"/>
                    </g>
                    <g transform="matrix(2.35938,0,0,1.07813,-1824.38,26.1563)">
                        <path d="M976.194,190L896.144,190C888.338,190 882,196.338 882,204.144L882,232.433C882,240.24 888.338,246.578 896.144,246.578L1000,246.578L999.994,232.845C999.998,232.708 1000,232.571 1000,232.433L1000,204.144C1000,203.899 999.994,203.654 999.981,203.411L999.955,143.004L999.875,143.004C999.152,136.676 995.347,131.278 990,128.351L990,166.715L990,175.861C990,183.554 983.844,189.821 976.194,190Z" style="fill:url(#_Linear24);"/>
                    </g>
                </g>
                <path d="M535,182.7C535,171.275 514.702,162 489.7,162L278.3,162C253.298,162 233,171.275 233,182.7L233,279.3C233,290.725 253.298,300 278.3,300L489.7,300C514.702,300 535,290.725 535,279.3L535,182.7Z" style="fill:none;stroke:black;stroke-width:5.55px;"/>
            </g>
        </g>
        <g transform="matrix(1.5625,0,0,4.26667,0,0)">
            <g transform="matrix(1.08503,0,0,0.217391,378.227,199.626)">
                <path d="M535,182.7C535,171.275 529.925,162 523.675,162L244.325,162C238.075,162 233,171.275 233,182.7L233,279.3C233,290.725 238.075,300 244.325,300L523.675,300C529.925,300 535,290.725 535,279.3L535,182.7Z" style="fill:rgb(48,184,254);"/>
                <clipPath id="_clip25">
                    <path d="M535,182.7C535,171.275 529.925,162 523.675,162L244.325,162C238.075,162 233,171.275 233,182.7L233,279.3C233,290.725 238.075,300 244.325,300L523.675,300C529.925,300 535,290.725 535,279.3L535,182.7Z"/>
                </clipPath>
                <g clip-path="url(#_clip25)">
                    <g transform="matrix(0.547101,0,0,1,-1332.8,-827.875)">
                        <path d="M2862,1099.17L2862,1107.17C2862,1118.6 2871.28,1127.88 2882.7,1127.88L3393.3,1127.88C3404.72,1127.88 3414,1118.6 3414,1107.17L3414,1099.17C3414,1110.6 3404.72,1119.88 3393.3,1119.88L2882.7,1119.88C2871.28,1119.88 2862,1110.6 2862,1099.17Z" style="fill-opacity:0.5;"/>
                    </g>
                    <g transform="matrix(0.589844,0,0,1.07813,-566.828,26.1606)">
                        <path d="M1844.09,190L1380.08,190C1372.27,190 1365.93,196.337 1365.93,204.143L1365.93,232.43C1365.93,240.236 1372.27,246.574 1380.08,246.574L1868,246.574L1867.95,143L1867.88,143C1867.15,136.672 1863.35,131.274 1858,128.347L1858,166.711L1858,175.857C1858,183.585 1851.79,189.874 1844.09,189.998L1844.09,190Z" style="fill:url(#_Linear26);"/>
                    </g>
                </g>
                <path d="M535,182.7C535,171.275 529.925,162 523.675,162L244.325,162C238.075,162 233,171.275 233,182.7L233,279.3C233,290.725 238.075,300 244.325,300L523.675,300C529.925,300 535,290.725 535,279.3L535,182.7Z" style="fill:none;stroke:black;stroke-width:2.93px;"/>
            </g>
        </g>
        <g transform="matrix(1.5625,0,0,4.26667,0,0)">
            <g transform="matrix(0.542517,0,0,0.217391,308.794,199.626)">
                <path d="M535,182.7C535,171.275 524.851,162 512.35,162L255.65,162C243.149,162 233,171.275 233,182.7L233,279.3C233,290.725 243.149,300 255.65,300L512.35,300C524.851,300 535,290.725 535,279.3L535,182.7Z" style="fill:rgb(73,188,244);"/>
                <clipPath id="_clip27">
                    <path d="M535,182.7C535,171.275 524.851,162 512.35,162L255.65,162C243.149,162 233,171.275 233,182.7L233,279.3C233,290.725 243.149,300 255.65,300L512.35,300C524.851,300 535,290.725 535,279.3L535,182.7Z"/>
                </clipPath>
                <g clip-path="url(#_clip27)">
                    <g transform="matrix(1.0942,0,0,1,-4020.82,-1018.38)">
                        <path d="M4163.6,1289.7C4163.6,1301.12 4154.32,1310.4 4142.9,1310.4L3908.3,1310.4C3896.87,1310.4 3887.6,1301.12 3887.6,1289.7L3887.6,1297.67C3887.6,1309.1 3896.87,1318.38 3908.3,1318.38L4142.9,1318.38C4154.32,1318.38 4163.6,1309.1 4163.6,1297.67L4163.6,1289.7Z" style="fill-opacity:0.5;"/>
                    </g>
                    <g transform="matrix(1.17969,0,0,1.07813,-1005.67,26.1563)">
                        <path d="M1282.19,190L1074.14,190C1066.34,190 1060,196.338 1060,204.144L1060,232.433C1060,240.24 1066.34,246.578 1074.14,246.578L1306,246.578L1306,190L1305.98,190L1305.95,143.004L1305.88,143.004C1305.15,136.676 1301.35,131.278 1296,128.351L1296,166.715L1296,175.861C1296,183.554 1289.84,189.821 1282.19,190Z" style="fill:url(#_Linear28);"/>
                    </g>
                </g>
                <path d="M535,182.7C535,171.275 524.851,162 512.35,162L255.65,162C243.149,162 233,171.275 233,182.7L233,279.3C233,290.725 243.149,300 255.65,300L512.35,300C524.851,300 535,290.725 535,279.3L535,182.7Z" style="fill:none;stroke:black;stroke-width:4.5px;"/>
            </g>
        </g>
        <g transform="matrix(1.5625,0,0,4.26667,0,0)">
            <g transform="matrix(0.271258,0,0,0.217391,258.077,199.626)">
                <path d="M535,182.7C535,171.275 514.702,162 489.7,162L278.3,162C253.298,162 233,171.275 233,182.7L233,279.3C233,290.725 253.298,300 278.3,300L489.7,300C514.702,300 535,290.725 535,279.3L535,182.7Z" style="fill:rgb(48,184,254);"/>
                <clipPath id="_clip29">
                    <path d="M535,182.7C535,171.275 514.702,162 489.7,162L278.3,162C253.298,162 233,171.275 233,182.7L233,279.3C233,290.725 253.298,300 278.3,300L489.7,300C514.702,300 535,290.725 535,279.3L535,182.7Z"/>
                </clipPath>
                <g clip-path="url(#_clip29)">
                    <g transform="matrix(2.18841,0,0,1,-7527.09,-1018.38)">
                        <path d="M3546,1289.7L3546,1297.67C3546,1309.1 3555.28,1318.38 3566.7,1318.38L3663.3,1318.38C3674.72,1318.38 3684,1309.1 3684,1297.67L3684,1289.7C3684,1301.12 3674.72,1310.4 3663.3,1310.4L3566.7,1310.4C3555.28,1310.4 3546,1301.12 3546,1289.7Z" style="fill-opacity:0.5;"/>
                    </g>
                    <g transform="matrix(2.35938,0,0,1.07813,-1824.38,26.1563)">
                        <path d="M976.194,190L896.144,190C888.338,190 882,196.338 882,204.144L882,232.433C882,240.24 888.338,246.578 896.144,246.578L1000,246.578L999.994,232.845C999.998,232.708 1000,232.571 1000,232.433L1000,204.144C1000,203.899 999.994,203.654 999.981,203.411L999.955,143.004L999.875,143.004C999.152,136.676 995.347,131.278 990,128.351L990,166.715L990,175.861C990,183.554 983.844,189.821 976.194,190Z" style="fill:url(#_Linear30);"/>
                    </g>
                </g>
                <path d="M535,182.7C535,171.275 514.702,162 489.7,162L278.3,162C253.298,162 233,171.275 233,182.7L233,279.3C233,290.725 253.298,300 278.3,300L489.7,300C514.702,300 535,290.725 535,279.3L535,182.7Z" style="fill:none;stroke:black;stroke-width:5.55px;"/>
            </g>
        </g>
        <g transform="matrix(1.5625,0,0,4.26667,0,0)">
            <g transform="matrix(1.08503,0,0,0.217391,378.227,241.345)">
                <path d="M535,182.7C535,171.275 529.925,162 523.675,162L244.325,162C238.075,162 233,171.275 233,182.7L233,279.3C233,290.725 238.075,300 244.325,300L523.675,300C529.925,300 535,290.725 535,279.3L535,182.7Z" style="fill:rgb(216,92,255);"/>
                <clipPath id="_clip31">
                    <path d="M535,182.7C535,171.275 529.925,162 523.675,162L244.325,162C238.075,162 233,171.275 233,182.7L233,279.3C233,290.725 238.075,300 244.325,300L523.675,300C529.925,300 535,290.725 535,279.3L535,182.7Z"/>
                </clipPath>
                <g clip-path="url(#_clip31)">
                    <g transform="matrix(0.547101,0,0,1,-1332.8,-827.875)">
                        <path d="M2862,1099.17L2862,1107.17C2862,1118.6 2871.28,1127.88 2882.7,1127.88L3393.3,1127.88C3404.72,1127.88 3414,1118.6 3414,1107.17L3414,1099.17C3414,1110.6 3404.72,1119.88 3393.3,1119.88L2882.7,1119.88C2871.28,1119.88 2862,1110.6 2862,1099.17Z" style="fill-opacity:0.5;"/>
                    </g>
                    <g transform="matrix(0.589844,0,0,1.07813,-566.828,26.1606)">
                        <path d="M1844.09,190L1380.08,190C1372.27,190 1365.93,196.337 1365.93,204.143L1365.93,232.43C1365.93,240.236 1372.27,246.574 1380.08,246.574L1868,246.574L1867.95,143L1867.88,143C1867.15,136.672 1863.35,131.274 1858,128.347L1858,166.711L1858,175.857C1858,183.585 1851.79,189.874 1844.09,189.998L1844.09,190Z" style="fill:url(#_Linear32);"/>
                    </g>
                </g>
                <path d="M535,182.7C535,171.275 529.925,162 523.675,162L244.325,162C238.075,162 233,171.275 233,182.7L233,279.3C233,290.725 238.075,300 244.325,300L523.675,300C529.925,300 535,290.725 535,279.3L535,182.7Z" style="fill:none;stroke:black;stroke-width:2.93px;"/>
            </g>
        </g>
        <g transform="matrix(1.5625,0,0,4.26667,0,0)">
            <g transform="matrix(0.542517,0,0,0.217391,308.794,241.345)">
                <path d="M535,182.7C535,171.275 524.851,162 512.35,162L255.65,162C243.149,162 233,171.275 233,182.7L233,279.3C233,290.725 243.149,300 255.65,300L512.35,300C524.851,300 535,290.725 535,279.3L535,182.7Z" style="fill:rgb(216,92,255);"/>
                <clipPath id="_clip33">
                    <path d="M535,182.7C535,171.275 524.851,162 512.35,162L255.65,162C243.149,162 233,171.275 233,182.7L233,279.3C233,290.725 243.149,300 255.65,300L512.35,300C524.851,300 535,290.725 535,279.3L535,182.7Z"/>
                </clipPath>
                <g clip-path="url(#_clip33)">
                    <g transform="matrix(1.0942,0,0,1,-4020.82,-1018.38)">
                        <path d="M4163.6,1289.7C4163.6,1301.12 4154.32,1310.4 4142.9,1310.4L3908.3,1310.4C3896.87,1310.4 3887.6,1301.12 3887.6,1289.7L3887.6,1297.67C3887.6,1309.1 3896.87,1318.38 3908.3,1318.38L4142.9,1318.38C4154.32,1318.38 4163.6,1309.1 4163.6,1297.67L4163.6,1289.7Z" style="fill-opacity:0.5;"/>
                    </g>
                    <g transform="matrix(1.17969,0,0,1.07813,-1005.67,26.1563)">
                        <path d="M1282.19,190L1074.14,190C1066.34,190 1060,196.338 1060,204.144L1060,232.433C1060,240.24 1066.34,246.578 1074.14,246.578L1306,246.578L1306,190L1305.98,190L1305.95,143.004L1305.88,143.004C1305.15,136.676 1301.35,131.278 1296,128.351L1296,166.715L1296,175.861C1296,183.554 1289.84,189.821 1282.19,190Z" style="fill:url(#_Linear34);"/>
                    </g>
                </g>
                <path d="M535,182.7C535,171.275 524.851,162 512.35,162L255.65,162C243.149,162 233,171.275 233,182.7L233,279.3C233,290.725 243.149,300 255.65,300L512.35,300C524.851,300 535,290.725 535,279.3L535,182.7Z" style="fill:none;stroke:black;stroke-width:4.5px;"/>
            </g>
        </g>
        <g transform="matrix(1.5625,0,0,4.26667,0,0)">
            <g transform="matrix(0.271258,0,0,0.217391,258.077,241.345)">
                <path d="M535,182.7C535,171.275 514.702,162 489.7,162L278.3,162C253.298,162 233,171.275 233,182.7L233,279.3C233,290.725 253.298,300 278.3,300L489.7,300C514.702,300 535,290.725 535,279.3L535,182.7Z" style="fill:rgb(216,92,255);"/>
                <clipPath id="_clip35">
                    <path d="M535,182.7C535,171.275 514.702,162 489.7,162L278.3,162C253.298,162 233,171.275 233,182.7L233,279.3C233,290.725 253.298,300 278.3,300L489.7,300C514.702,300 535,290.725 535,279.3L535,182.7Z"/>
                </clipPath>
                <g clip-path="url(#_clip35)">
                    <g transform="matrix(2.18841,0,0,1,-7527.09,-1018.38)">
                        <path d="M3546,1289.7L3546,1297.67C3546,1309.1 3555.28,1318.38 3566.7,1318.38L3663.3,1318.38C3674.72,1318.38 3684,1309.1 3684,1297.67L3684,1289.7C3684,1301.12 3674.72,1310.4 3663.3,1310.4L3566.7,1310.4C3555.28,1310.4 3546,1301.12 3546,1289.7Z" style="fill-opacity:0.5;"/>
                    </g>
                    <g transform="matrix(2.35938,0,0,1.07813,-1824.38,26.1563)">
                        <path d="M976.194,190L896.144,190C888.338,190 882,196.338 882,204.144L882,232.433C882,240.24 888.338,246.578 896.144,246.578L1000,246.578L999.994,232.845C999.998,232.708 1000,232.571 1000,232.433L1000,204.144C1000,203.899 999.994,203.654 999.981,203.411L999.955,143.004L999.875,143.004C999.152,136.676 995.347,131.278 990,128.351L990,166.715L990,175.861C990,183.554 983.844,189.821 976.194,190Z" style="fill:url(#_Linear36);"/>
                    </g>
                </g>
                <path d="M535,182.7C535,171.275 514.702,162 489.7,162L278.3,162C253.298,162 233,171.275 233,182.7L233,279.3C233,290.725 253.298,300 278.3,300L489.7,300C514.702,300 535,290.725 535,279.3L535,182.7Z" style="fill:none;stroke:black;stroke-width:5.55px;"/>
            </g>
        </g>
        <g transform="matrix(1.5625,0,0,4.26667,0,0)">
            <g transform="matrix(1.08503,0,0,0.217391,378.227,283.064)">
                <path d="M535,182.7C535,171.275 529.925,162 523.675,162L244.325,162C238.075,162 233,171.275 233,182.7L233,279.3C233,290.725 238.075,300 244.325,300L523.675,300C529.925,300 535,290.725 535,279.3L535,182.7Z" style="fill:rgb(108,101,120);"/>
                <clipPath id="_clip37">
                    <path d="M535,182.7C535,171.275 529.925,162 523.675,162L244.325,162C238.075,162 233,171.275 233,182.7L233,279.3C233,290.725 238.075,300 244.325,300L523.675,300C529.925,300 535,290.725 535,279.3L535,182.7Z"/>
                </clipPath>
                <g clip-path="url(#_clip37)">
                    <g transform="matrix(0.547101,0,0,1,-1332.8,-827.875)">
                        <path d="M2862,1099.17L2862,1107.17C2862,1118.6 2871.28,1127.88 2882.7,1127.88L3393.3,1127.88C3404.72,1127.88 3414,1118.6 3414,1107.17L3414,1099.17C3414,1110.6 3404.72,1119.88 3393.3,1119.88L2882.7,1119.88C2871.28,1119.88 2862,1110.6 2862,1099.17Z" style="fill-opacity:0.5;"/>
                    </g>
                    <g transform="matrix(0.589844,0,0,1.07813,-566.828,26.1606)">
                        <path d="M1844.09,190L1380.08,190C1372.27,190 1365.93,196.337 1365.93,204.143L1365.93,232.43C1365.93,240.236 1372.27,246.574 1380.08,246.574L1868,246.574L1867.95,143L1867.88,143C1867.15,136.672 1863.35,131.274 1858,128.347L1858,166.711L1858,175.857C1858,183.585 1851.79,189.874 1844.09,189.998L1844.09,190Z" style="fill:url(#_Linear38);"/>
                    </g>
                </g>
                <path d="M535,182.7C535,171.275 529.925,162 523.675,162L244.325,162C238.075,162 233,171.275 233,182.7L233,279.3C233,290.725 238.075,300 244.325,300L523.675,300C529.925,300 535,290.725 535,279.3L535,182.7Z" style="fill:none;stroke:black;stroke-width:2.93px;"/>
            </g>
        </g>
        <g transform="matrix(1.5625,0,0,4.26667,0,0)">
            <g transform="matrix(0.542517,0,0,0.217391,308.794,283.064)">
                <path d="M535,182.7C535,171.275 524.851,162 512.35,162L255.65,162C243.149,162 233,171.275 233,182.7L233,279.3C233,290.725 243.149,300 255.65,300L512.35,300C524.851,300 535,290.725 535,279.3L535,182.7Z" style="fill:rgb(108,101,120);"/>
                <clipPath id="_clip39">
                    <path d="M535,182.7C535,171.275 524.851,162 512.35,162L255.65,162C243.149,162 233,171.275 233,182.7L233,279.3C233,290.725 243.149,300 255.65,300L512.35,300C524.851,300 535,290.725 535,279.3L535,182.7Z"/>
                </clipPath>
                <g clip-path="url(#_clip39)">
                    <g transform="matrix(1.0942,0,0,1,-4020.82,-1018.38)">
                        <path d="M4163.6,1289.7C4163.6,1301.12 4154.32,1310.4 4142.9,1310.4L3908.3,1310.4C3896.87,1310.4 3887.6,1301.12 3887.6,1289.7L3887.6,1297.67C3887.6,1309.1 3896.87,1318.38 3908.3,1318.38L4142.9,1318.38C4154.32,1318.38 4163.6,1309.1 4163.6,1297.67L4163.6,1289.7Z" style="fill-opacity:0.5;"/>
                    </g>
                    <g transform="matrix(1.17969,0,0,1.07813,-1005.67,26.1563)">
                        <path d="M1282.19,190L1074.14,190C1066.34,190 1060,196.338 1060,204.144L1060,232.433C1060,240.24 1066.34,246.578 1074.14,246.578L1306,246.578L1306,190L1305.98,190L1305.95,143.004L1305.88,143.004C1305.15,136.676 1301.35,131.278 1296,128.351L1296,166.715L1296,175.861C1296,183.554 1289.84,189.821 1282.19,190Z" style="fill:url(#_Linear40);"/>
                    </g>
                </g>
                <path d="M535,182.7C535,171.275 524.851,162 512.35,162L255.65,162C243.149,162 233,171.275 233,182.7L233,279.3C233,290.725 243.149,300 255.65,300L512.35,300C524.851,300 535,290.725 535,279.3L535,182.7Z" style="fill:none;stroke:black;stroke-width:4.5px;"/>
            </g>
        </g>
        <g transform="matrix(1.5625,0,0,4.26667,0,0)">
            <g transform="matrix(0.271258,0,0,0.217391,258.077,283.064)">
                <path d="M535,182.7C535,171.275 514.702,162 489.7,162L278.3,162C253.298,162 233,171.275 233,182.7L233,279.3C233,290.725 253.298,300 278.3,300L489.7,300C514.702,300 535,290.725 535,279.3L535,182.7Z" style="fill:rgb(108,101,120);"/>
                <clipPath id="_clip41">
                    <path d="M535,182.7C535,171.275 514.702,162 489.7,162L278.3,162C253.298,162 233,171.275 233,182.7L233,279.3C233,290.725 253.298,300 278.3,300L489.7,300C514.702,300 535,290.725 535,279.3L535,182.7Z"/>
                </clipPath>
                <g clip-path="url(#_clip41)">
                    <g transform="matrix(2.18841,0,0,1,-7527.09,-1018.38)">
                        <path d="M3546,1289.7L3546,1297.67C3546,1309.1 3555.28,1318.38 3566.7,1318.38L3663.3,1318.38C3674.72,1318.38 3684,1309.1 3684,1297.67L3684,1289.7C3684,1301.12 3674.72,1310.4 3663.3,1310.4L3566.7,1310.4C3555.28,1310.4 3546,1301.12 3546,1289.7Z" style="fill-opacity:0.5;"/>
                    </g>
                    <g transform="matrix(2.35938,0,0,1.07813,-1824.38,26.1563)">
                        <path d="M976.194,190L896.144,190C888.338,190 882,196.338 882,204.144L882,232.433C882,240.24 888.338,246.578 896.144,246.578L1000,246.578L999.994,232.845C999.998,232.708 1000,232.571 1000,232.433L1000,204.144C1000,203.899 999.994,203.654 999.981,203.411L999.955,143.004L999.875,143.004C999.152,136.676 995.347,131.278 990,128.351L990,166.715L990,175.861C990,183.554 983.844,189.821 976.194,190Z" style="fill:url(#_Linear42);"/>
                    </g>
                </g>
                <path d="M535,182.7C535,171.275 514.702,162 489.7,162L278.3,162C253.298,162 233,171.275 233,182.7L233,279.3C233,290.725 253.298,300 278.3,300L489.7,300C514.702,300 535,290.725 535,279.3L535,182.7Z" style="fill:none;stroke:black;stroke-width:5.55px;"/>
            </g>
        </g>
    </g>
    <defs>
        <linearGradient id="_Linear2" x1="0" y1="0" x2="1" y2="0" gradientUnits="userSpaceOnUse" gradientTransform="matrix(-2.23455e-13,64,-64,-2.23455e-13,1612,189.996)"><stop offset="0" style="stop-color:black;stop-opacity:0.2"/><stop offset="1" style="stop-color:black;stop-opacity:0"/></linearGradient>
        <linearGradient id="_Linear4" x1="0" y1="0" x2="1" y2="0" gradientUnits="userSpaceOnUse" gradientTransform="matrix(3.91887e-15,64,-64,3.91887e-15,1183,190)"><stop offset="0" style="stop-color:black;stop-opacity:0.2"/><stop offset="1" style="stop-color:black;stop-opacity:0"/></linearGradient>
        <linearGradient id="_Linear6" x1="0" y1="0" x2="1" y2="0" gradientUnits="userSpaceOnUse" gradientTransform="matrix(3.91887e-15,64,-64,3.91887e-15,941,190)"><stop offset="0" style="stop-color:black;stop-opacity:0.2"/><stop offset="1" style="stop-color:black;stop-opacity:0"/></linearGradient>
        <linearGradient id="_Linear8" x1="0" y1="0" x2="1" y2="0" gradientUnits="userSpaceOnUse" gradientTransform="matrix(-2.23455e-13,64,-64,-2.23455e-13,1612,189.996)"><stop offset="0" style="stop-color:rgb(153,17,0);stop-opacity:0.2"/><stop offset="1" style="stop-color:rgb(153,17,0);stop-opacity:0"/></linearGradient>
        <linearGradient id="_Linear10" x1="0" y1="0" x2="1" y2="0" gradientUnits="userSpaceOnUse" gradientTransform="matrix(3.91887e-15,64,-64,3.91887e-15,1183,190)"><stop offset="0" style="stop-color:rgb(153,17,0);stop-opacity:0.2"/><stop offset="1" style="stop-color:rgb(153,17,0);stop-opacity:0"/></linearGradient>
        <linearGradient id="_Linear12" x1="0" y1="0" x2="1" y2="0" gradientUnits="userSpaceOnUse" gradientTransform="matrix(3.91887e-15,64,-64,3.91887e-15,941,190)"><stop offset="0" style="stop-color:rgb(153,17,0);stop-opacity:0.2"/><stop offset="1" style="stop-color:rgb(153,17,0);stop-opacity:0"/></linearGradient>
        <linearGradient id="_Linear14" x1="0" y1="0" x2="1" y2="0" gradientUnits="userSpaceOnUse" gradientTransform="matrix(-2.23455e-13,64,-64,-2.23455e-13,1612,189.996)"><stop offset="0" style="stop-color:rgb(255,29,0);stop-opacity:0.2"/><stop offset="1" style="stop-color:rgb(255,29,0);stop-opacity:0"/></linearGradient>
        <linearGradient id="_Linear16" x1="0" y1="0" x2="1" y2="0" gradientUnits="userSpaceOnUse" gradientTransform="matrix(3.91887e-15,64,-64,3.91887e-15,1183,190)"><stop offset="0" style="stop-color:rgb(255,29,0);stop-opacity:0.2"/><stop offset="1" style="stop-color:rgb(255,29,0);stop-opacity:0"/></linearGradient>
        <linearGradient id="_Linear18" x1="0" y1="0" x2="1" y2="0" gradientUnits="userSpaceOnUse" gradientTransform="matrix(3.91887e-15,64,-64,3.91887e-15,941,190)"><stop offset="0" style="stop-color:rgb(255,29,0);stop-opacity:0.2"/><stop offset="1" style="stop-color:rgb(255,29,0);stop-opacity:0"/></linearGradient>
        <linearGradient id="_Linear20" x1="0" y1="0" x2="1" y2="0" gradientUnits="userSpaceOnUse" gradientTransform="matrix(-2.23455e-13,64,-64,-2.23455e-13,1612,189.996)"><stop offset="0" style="stop-color:black;stop-opacity:0.2"/><stop offset="1" style="stop-color:black;stop-opacity:0"/></linearGradient>
        <linearGradient id="_Linear22" x1="0" y1="0" x2="1" y2="0" gradientUnits="userSpaceOnUse" gradientTransform="matrix(3.91887e-15,64,-64,3.91887e-15,1183,190)"><stop offset="0" style="stop-color:black;stop-opacity:0.2"/><stop offset="1" style="stop-color:black;stop-opacity:0"/></linearGradient>
        <linearGradient id="_Linear24" x1="0" y1="0" x2="1" y2="0" gradientUnits="userSpaceOnUse" gradientTransform="matrix(3.91887e-15,64,-64,3.91887e-15,941,190)"><stop offset="0" style="stop-color:black;stop-opacity:0.2"/><stop offset="1" style="stop-color:black;stop-opacity:0"/></linearGradient>
        <linearGradient id="_Linear26" x1="0" y1="0" x2="1" y2="0" gradientUnits="userSpaceOnUse" gradientTransform="matrix(-2.23455e-13,64,-64,-2.23455e-13,1612,189.996)"><stop offset="0" style="stop-color:black;stop-opacity:0.2"/><stop offset="1" style="stop-color:black;stop-opacity:0"/></linearGradient>
        <linearGradient id="_Linear28" x1="0" y1="0" x2="1" y2="0" gradientUnits="userSpaceOnUse" gradientTransform="matrix(3.91887e-15,64,-64,3.91887e-15,1183,190)"><stop offset="0" style="stop-color:black;stop-opacity:0.2"/><stop offset="1" style="stop-color:black;stop-opacity:0"/></linearGradient>
        <linearGradient id="_Linear30" x1="0" y1="0" x2="1" y2="0" gradientUnits="userSpaceOnUse" gradientTransform="matrix(3.91887e-15,64,-64,3.91887e-15,941,190)"><stop offset="0" style="stop-color:black;stop-opacity:0.2"/><stop offset="1" style="stop-color:black;stop-opacity:0"/></linearGradient>
        <linearGradient id="_Linear32" x1="0" y1="0" x2="1" y2="0" gradientUnits="userSpaceOnUse" gradientTransform="matrix(-2.23455e-13,64,-64,-2.23455e-13,1612,189.996)"><stop offset="0" style="stop-color:black;stop-opacity:0.2"/><stop offset="1" style="stop-color:black;stop-opacity:0"/></linearGradient>
        <linearGradient id="_Linear34" x1="0" y1="0" x2="1" y2="0" gradientUnits="userSpaceOnUse" gradientTransform="matrix(3.91887e-15,64,-64,3.91887e-15,1183,190)"><stop offset="0" style="stop-color:black;stop-opacity:0.2"/><stop offset="1" style="stop-color:black;stop-opacity:0"/></linearGradient>
        <linearGradient id="_Linear36" x1="0" y1="0" x2="1" y2="0" gradientUnits="userSpaceOnUse" gradientTransform="matrix(3.91887e-15,64,-64,3.91887e-15,941,190)"><stop offset="0" style="stop-color:black;stop-opacity:0.2"/><stop offset="1" style="stop-color:black;stop-opacity:0"/></linearGradient>
        <linearGradient id="_Linear38" x1="0" y1="0" x2="1" y2="0" gradientUnits="userSpaceOnUse" gradientTransform="matrix(-2.23455e-13,64,-64,-2.23455e-13,1612,189.996)"><stop offset="0" style="stop-color:black;stop-opacity:0.2"/><stop offset="1" style="stop-color:black;stop-opacity:0"/></linearGradient>
        <linearGradient id="_Linear40" x1="0" y1="0" x2="1" y2="0" gradientUnits="userSpaceOnUse" gradientTransform="matrix(3.91887e-15,64,-64,3.91887e-15,1183,190)"><stop offset="0" style="stop-color:black;stop-opacity:0.2"/><stop offset="1" style="stop-color:black;stop-opacity:0"/></linearGradient>
        <linearGradient id="_Linear42" x1="0" y1="0" x2="1" y2="0" gradientUnits="userSpaceOnUse" gradientTransform="matrix(3.91887e-15,64,-64,3.91887e-15,941,190)"><stop offset="0" style="stop-color:black;stop-opacity:0.2"/><stop offset="1" style="stop-color:black;stop-opacity:0"/></linearGradient>
    </defs>
</svg>
